<svg xmlns="http://www.w3.org/2000/svg" viewBox="0 0 640 420">
  <rect width="640" height="420" fill="#16171d"/>
  <g transform="rotate(-8 320 210)">
    <rect x="-20" y="82" width="700" height="94" fill="#f4f1de" opacity=".92"/>
    <rect x="-20" y="244" width="700" height="94" fill="#f4f1de" opacity=".92"/>
    <g fill="#16171d" opacity=".85">
      <rect x="18" y="100" width="36" height="36"/><rect x="92" y="100" width="36" height="36"/><rect x="166" y="100" width="36" height="36"/><rect x="240" y="100" width="36" height="36"/><rect x="314" y="100" width="36" height="36"/><rect x="388" y="100" width="36" height="36"/><rect x="462" y="100" width="36" height="36"/><rect x="536" y="100" width="36" height="36"/>
      <rect x="18" y="262" width="36" height="36"/><rect x="92" y="262" width="36" height="36"/><rect x="166" y="262" width="36" height="36"/><rect x="240" y="262" width="36" height="36"/><rect x="314" y="262" width="36" height="36"/><rect x="388" y="262" width="36" height="36"/><rect x="462" y="262" width="36" height="36"/><rect x="536" y="262" width="36" height="36"/>
    </g>
  </g>
  <circle cx="474" cy="110" r="76" fill="#ff8a3d" opacity=".82"/>
  <path d="M418 356l116-240 76 240z" fill="#f7c948" opacity=".75"/>
</svg>